<svg width="400" height="400" viewBox="0 0 400 400" xmlns="http://www.w3.org/2000/svg">
  <!-- Background Grid -->
  <defs>
    <pattern id="smallGrid" width="10" height="10" patternUnits="userSpaceOnUse">
      <path d="M 10 0 L 0 0 0 10" fill="none" stroke="#009688" stroke-width="0.5" opacity="0.2"/>
    </pattern>
    <pattern id="grid" width="50" height="50" patternUnits="userSpaceOnUse">
      <rect width="50" height="50" fill="url(#smallGrid)"/>
      <path d="M 50 0 L 0 0 0 50" fill="none" stroke="#009688" stroke-width="1" opacity="0.3"/>
    </pattern>
    
    <!-- Gradients -->
    <linearGradient id="mainGradient" x1="0%" y1="0%" x2="100%" y2="100%">
      <stop offset="0%" stop-color="#009688" stop-opacity="0.8"/>
      <stop offset="100%" stop-color="#4DB6AC" stop-opacity="0.6"/>
    </linearGradient>
    
    <radialGradient id="centerGlow" cx="50%" cy="50%" r="50%" fx="50%" fy="50%">
      <stop offset="0%" stop-color="#009688" stop-opacity="0.7"/>
      <stop offset="100%" stop-color="#009688" stop-opacity="0"/>
    </radialGradient>
    
    <!-- Filters -->
    <filter id="glow" x="-50%" y="-50%" width="200%" height="200%">
      <feGaussianBlur stdDeviation="5" result="blur"/>
      <feComposite in="SourceGraphic" in2="blur" operator="over"/>
    </filter>
  </defs>
  
  <!-- Main Background -->
  <rect width="400" height="400" fill="white"/>
  <rect width="400" height="400" fill="url(#grid)"/>
  
  <!-- Center Glow -->
  <circle cx="200" cy="200" r="100" fill="url(#centerGlow)" opacity="0.5">
    <animate attributeName="r" values="100;120;100" dur="4s" repeatCount="indefinite"/>
    <animate attributeName="opacity" values="0.5;0.7;0.5" dur="4s" repeatCount="indefinite"/>
  </circle>
  
  <!-- Connection Lines -->
  <g stroke="#009688" stroke-width="1.5" opacity="0.6">
    <line x1="200" y1="200" x2="100" y2="100" />
    <line x1="200" y1="200" x2="300" y2="100" />
    <line x1="200" y1="200" x2="100" y2="300" />
    <line x1="200" y1="200" x2="300" y2="300" />
    <line x1="200" y1="200" x2="50" y2="200" />
    <line x1="200" y1="200" x2="350" y2="200" />
    <line x1="200" y1="200" x2="200" y2="50" />
    <line x1="200" y1="200" x2="200" y2="350" />
  </g>
  
  <!-- Nodes -->
  <g fill="url(#mainGradient)" filter="url(#glow)">
    <!-- Center Node -->
    <circle cx="200" cy="200" r="20">
      <animate attributeName="r" values="20;22;20" dur="2s" repeatCount="indefinite"/>
    </circle>
    
    <!-- Outer Nodes -->
    <circle cx="100" cy="100" r="10" opacity="0.8"/>
    <circle cx="300" cy="100" r="12" opacity="0.8"/>
    <circle cx="100" cy="300" r="8" opacity="0.8"/>
    <circle cx="300" cy="300" r="14" opacity="0.8"/>
    <circle cx="50" cy="200" r="8" opacity="0.8"/>
    <circle cx="350" cy="200" r="10" opacity="0.8"/>
    <circle cx="200" cy="50" r="12" opacity="0.8"/>
    <circle cx="200" cy="350" r="9" opacity="0.8"/>
    
    <!-- Additional Nodes -->
    <circle cx="150" cy="150" r="6" opacity="0.6"/>
    <circle cx="250" cy="150" r="8" opacity="0.6"/>
    <circle cx="150" cy="250" r="7" opacity="0.6"/>
    <circle cx="250" cy="250" r="5" opacity="0.6"/>
  </g>
  
  <!-- Animated Pulse Rings -->
  <circle cx="200" cy="200" r="40" fill="none" stroke="#009688" stroke-width="2" opacity="0">
    <animate attributeName="r" values="40;100;160" dur="3s" repeatCount="indefinite"/>
    <animate attributeName="opacity" values="0.6;0.2;0" dur="3s" repeatCount="indefinite"/>
  </circle>
  
  <circle cx="200" cy="200" r="40" fill="none" stroke="#009688" stroke-width="2" opacity="0">
    <animate attributeName="r" values="40;100;160" dur="3s" begin="1s" repeatCount="indefinite"/>
    <animate attributeName="opacity" values="0.6;0.2;0" dur="3s" begin="1s" repeatCount="indefinite"/>
  </circle>
  
  <!-- TRAVIS Branding -->
  <g transform="translate(200, 340)" text-anchor="middle">
    <text font-family="'Bruno Ace SC', monospace" font-size="24" fill="#009688" font-weight="bold">
      TRAVIS
    </text>
    <text y="20" font-family="sans-serif" font-size="10" fill="#009688" opacity="0.8">
      Transformer-based Assistant for Visually Impaired Service Agents
    </text>
  </g>
  
  <!-- Dark Mode Support -->
  <style>
    @media (prefers-color-scheme: dark) {
      #background { fill: #121212; }
      .text-dark { fill: #4DB6AC; }
    }
  </style>
</svg>